{
  "source": "C:\\Users\\Peter\\Desktop\\stuff\\MIUN\\quantitative_research\\video_compression\\videos\\BVI-HD\\BVI-HD_CDVL_videos\\ORIG\\KineticFastPainting_1920x1080_60fps.mp4",
  "output": "C:\\Users\\Peter\\Desktop\\stuff\\MIUN\\quantitative_research\\video_compression\\compressed_videos\\BVI-HD\\h264\\4\\KineticFastPainting_1920x1080_60fps_h264.mp4",
  "codec": "h264",
  "ok": "Input #0, mov,mp4,m4a,3gp,3g2,mj2, from 'C:\\Users\\Peter\\Desktop\\stuff\\MIUN\\quantitative_research\\video_compression\\videos\\BVI-HD\\BVI-HD_CDVL_videos\\ORIG\\KineticFastPainting_1920x1080_60fps.mp4':\n  Metadata:\n    major_brand     : isom\n    minor_version   : 512\n    compatible_brands: isomiso2avc1mp41\n    encoder         : Lavf54.28.101\n  Duration: 00:00:05.00, start: 0.000000, bitrate: 477980 kb/s\n  Stream #0:0[0x1](und): Video: h264 (High 4:4:4 Predictive) (avc1 / 0x31637661), yuv420p(progressive), 1920x1080, 477974 kb/s, 60 fps, 60 tbr, 60 tbn (default)\n    Metadata:\n      handler_name    : VideoHandler\n      vendor_id       : [0][0][0][0]\n[out#0/mp4 @ 0000016788669cc0] Codec AVOption b:a (set bitrate (in bits/s)) has not been used for any stream. The most likely reason is either wrong type (e.g. a video option with no video streams) or that it is a private option of some decoder which was not actually used for any stream.\nStream mapping:\n  Stream #0:0 -> #0:0 (h264 (native) -> h264 (libx264))\nPress [q] to stop, [?] for help\n[libx264 @ 000001678867bc80] using cpu capabilities: MMX2 SSE2Fast SSSE3 SSE4.2 AVX FMA3 BMI2 AVX2\n[libx264 @ 000001678867bc80] profile High, level 5.0, 4:2:0, 8-bit\n[libx264 @ 000001678867bc80] 264 - core 165 r3222 b35605a - H.264/MPEG-4 AVC codec - Copyleft 2003-2025 - http://www.videolan.org/x264.html - options: cabac=1 ref=5 deblock=1:0:0 analyse=0x3:0x113 me=hex subme=8 psy=1 psy_rd=1.00:0.00 mixed_ref=1 me_range=16 chroma_me=1 trellis=2 8x8dct=1 cqm=0 deadzone=21,11 fast_pskip=1 chroma_qp_offset=-2 threads=18 lookahead_threads=3 sliced_threads=0 nr=0 decimate=1 interlaced=0 bluray_compat=0 constrained_intra=0 bframes=3 b_pyramid=2 b_adapt=1 b_bias=0 direct=3 weightb=1 open_gop=0 weightp=2 keyint=250 keyint_min=25 scenecut=40 intra_refresh=0 rc_lookahead=50 rc=cbr mbtree=1 bitrate=4000 ratetol=1.0 qcomp=0.60 qpmin=0 qpmax=69 qpstep=4 vbv_maxrate=4000 vbv_bufsize=4000 nal_hrd=none filler=0 ip_ratio=1.40 aq=1:1.00\nOutput #0, mp4, to 'C:\\Users\\Peter\\Desktop\\stuff\\MIUN\\quantitative_research\\video_compression\\compressed_videos\\BVI-HD\\h264\\4\\KineticFastPainting_1920x1080_60fps_h264.mp4':\n  Metadata:\n    major_brand     : isom\n    minor_version   : 512\n    compatible_brands: isomiso2avc1mp41\n    encoder         : Lavf62.3.100\n  Stream #0:0(und): Video: h264 (avc1 / 0x31637661), yuv420p(tv, progressive), 1920x1080, q=2-31, 4000 kb/s, 60 fps, 15360 tbn (default)\n    Metadata:\n      encoder         : Lavc62.11.100 libx264\n      handler_name    : VideoHandler\n      vendor_id       : [0][0][0][0]\n    Side data:\n      cpb: bitrate max/min/avg: 4000000/0/4000000 buffer size: 4000000 vbv_delay: N/A\nframe=    0 fps=0.0 q=0.0 size=       0KiB time=N/A bitrate=N/A speed=N/A elapsed=0:00:00.51    \nframe=    0 fps=0.0 q=0.0 size=       0KiB time=N/A bitrate=N/A speed=N/A elapsed=0:00:01.04    \nframe=    0 fps=0.0 q=0.0 size=       0KiB time=N/A bitrate=N/A speed=N/A elapsed=0:00:01.62    \nframe=    0 fps=0.0 q=0.0 size=       0KiB time=N/A bitrate=N/A speed=N/A elapsed=0:00:02.20    \nframe=   16 fps=5.8 q=46.0 size=       0KiB time=00:00:00.20 bitrate=   1.9kbits/s speed=0.0723x elapsed=0:00:02.76    \nframe=   35 fps= 10 q=45.0 size=     256KiB time=00:00:00.53 bitrate=3932.9kbits/s speed=0.158x elapsed=0:00:03.38    \nframe=   55 fps= 14 q=44.0 size=     256KiB time=00:00:00.78 bitrate=2677.7kbits/s speed=0.197x elapsed=0:00:03.98    \nframe=   74 fps= 16 q=45.0 size=     512KiB time=00:00:01.20 bitrate=3495.6kbits/s speed=0.257x elapsed=0:00:04.66    \nframe=   97 fps= 19 q=46.0 size=     768KiB time=00:00:01.51 bitrate=4148.5kbits/s speed=0.29x elapsed=0:00:05.22    \nframe=  114 fps= 20 q=46.0 size=     768KiB time=00:00:01.81 bitrate=3463.4kbits/s speed=0.312x elapsed=0:00:05.82    \nframe=  132 fps= 21 q=44.0 size=    1024KiB time=00:00:02.13 bitrate=3932.3kbits/s speed=0.332x elapsed=0:00:06.42    \nframe=  149 fps= 21 q=43.0 size=    1024KiB time=00:00:02.41 bitrate=3471.3kbits/s speed=0.346x elapsed=0:00:06.97    \nframe=  168 fps= 22 q=44.0 size=    1280KiB time=00:00:02.76 bitrate=3790.2kbits/s speed=0.367x elapsed=0:00:07.53    \nframe=  187 fps= 23 q=45.0 size=    1280KiB time=00:00:03.06 bitrate=3419.4kbits/s speed=0.38x elapsed=0:00:08.07    \nframe=  204 fps= 24 q=48.0 size=    1536KiB time=00:00:03.33 bitrate=3775.0kbits/s speed=0.386x elapsed=0:00:08.63    \nframe=  228 fps= 25 q=45.0 size=    1792KiB time=00:00:03.71 bitrate=3949.9kbits/s speed=0.403x elapsed=0:00:09.22    \nframe=  257 fps= 26 q=42.0 size=    2048KiB time=00:00:04.25 bitrate=3947.7kbits/s speed=0.433x elapsed=0:00:09.81    \nframe=  283 fps= 27 q=46.0 size=    2048KiB time=00:00:04.68 bitrate=3582.4kbits/s speed=0.453x elapsed=0:00:10.33    \n[mp4 @ 000001678867a600] Starting second pass: moving the moov atom to the beginning of the file\n[out#0/mp4 @ 0000016788669cc0] video:2464KiB audio:0KiB subtitle:0KiB other streams:0KiB global headers:0KiB muxing overhead: 0.136608%\nframe=  300 fps= 28 q=-1.0 Lsize=    2468KiB time=00:00:04.96 bitrate=4069.9kbits/s speed=0.464x elapsed=0:00:10.71    \n[libx264 @ 000001678867bc80] frame I:2     Avg QP:38.77  size: 36570\n[libx264 @ 000001678867bc80] frame P:210   Avg QP:43.83  size:  9964\n[libx264 @ 000001678867bc80] frame B:88    Avg QP:46.96  size:  4055\n[libx264 @ 000001678867bc80] consecutive B-frames: 50.7% 30.0%  2.0% 17.3%\n[libx264 @ 000001678867bc80] mb I  I16..4: 11.1% 87.1%  1.8%\n[libx264 @ 000001678867bc80] mb P  I16..4:  9.1%  7.2%  0.0%  P16..4: 29.3%  1.6%  1.6%  0.0%  0.0%    skip:51.2%\n[libx264 @ 000001678867bc80] mb B  I16..4:  0.6%  0.5%  0.0%  B16..8: 30.3%  1.3%  0.0%  direct: 0.7%  skip:66.6%  L0:45.1% L1:53.9% BI: 0.9%\n[libx264 @ 000001678867bc80] 8x8 transform intra:46.7% inter:98.1%\n[libx264 @ 000001678867bc80] direct mvs  spatial:89.8% temporal:10.2%\n[libx264 @ 000001678867bc80] coded y,uvDC,uvAC intra: 12.9% 40.5% 2.7% inter: 3.2% 10.1% 0.0%\n[libx264 @ 000001678867bc80] i16 v,h,dc,p: 30% 25% 11% 34%\n[libx264 @ 000001678867bc80] i8 v,h,dc,ddl,ddr,vr,hd,vl,hu: 11%  5% 20% 10% 13% 13% 11%  9%  7%\n[libx264 @ 000001678867bc80] i4 v,h,dc,ddl,ddr,vr,hd,vl,hu: 14%  5%  9%  9% 25% 18%  9%  6%  6%\n[libx264 @ 000001678867bc80] i8c dc,h,v,p: 83%  7%  6%  4%\n[libx264 @ 000001678867bc80] Weighted P-Frames: Y:32.9% UV:14.8%\n[libx264 @ 000001678867bc80] ref P L0: 63.4%  8.3% 11.1%  6.8%  5.9%  3.9%  0.7%\n[libx264 @ 000001678867bc80] ref B L0: 83.4%  9.0%  6.2%  1.4%\n[libx264 @ 000001678867bc80] ref B L1: 98.5%  1.5%\n[libx264 @ 000001678867bc80] kb/s:4036.04\n",
  "seconds": 11.061010599136353,
  "probe_out": {}
}